<svg xmlns="http://www.w3.org/2000/svg" width="110.125" height="132.889" viewBox="0 0 110.125 132.889">
  <g id="noun_healthy_recipes_3826984" data-name="noun_healthy recipes_3826984" transform="translate(-17.938 -5.109)">
    <path id="Path_17" data-name="Path 17" d="M119,5.109H32.83a9.076,9.076,0,0,0-9.066,9.066V30.066h-2.72a3.105,3.105,0,1,0,0,6.21h2.72v12.98h-2.72a3.105,3.105,0,0,0,0,6.21h2.72V68.448h-2.72a3.105,3.105,0,0,0,0,6.21h2.72V87.639h-2.72a3.105,3.105,0,1,0,0,6.21h2.72V106.83h-2.72a3.105,3.105,0,1,0,0,6.21h2.72v15.891A9.076,9.076,0,0,0,32.83,138h92.128a3.105,3.105,0,0,0,3.105-3.105V115.626a3.105,3.105,0,0,0-3.105-3.105h-9.023V107.99h9.023a3.105,3.105,0,0,0,3.105-3.105V85.618a3.105,3.105,0,0,0-3.105-3.105h-9.023V77.982h9.023a3.105,3.105,0,0,0,3.105-3.105V55.611a3.105,3.105,0,0,0-3.105-3.105h-9.023V47.975h9.023a3.105,3.105,0,0,0,3.105-3.105V14.175A9.077,9.077,0,0,0,119,5.109Zm2.857,9.066V22.5H112.83a3.105,3.105,0,0,0-3.105,3.105V131.785H45.181V11.319H119A2.859,2.859,0,0,1,121.853,14.175ZM29.974,128.932V113.041h2.72a3.105,3.105,0,1,0,0-6.21h-2.72V93.85h2.72a3.105,3.105,0,1,0,0-6.21h-2.72V74.658h2.72a3.105,3.105,0,0,0,0-6.21h-2.72V55.467h2.72a3.105,3.105,0,0,0,0-6.21h-2.72V36.277h2.72a3.105,3.105,0,1,0,0-6.21h-2.72V14.175a2.859,2.859,0,0,1,2.856-2.856h7.915V131.787H32.83A2.859,2.859,0,0,1,29.974,128.932Zm91.879-10.2v13.056h-5.918V118.731Zm0-30.008v13.055h-5.918V88.723Zm0-30.007V71.771h-5.918V58.716Zm0-16.953h-5.918V28.708h5.918Z" fill="#fff"/>
    <path id="Path_18" data-name="Path 18" d="M103.6,94.06H61.517a2.218,2.218,0,1,0,0,4.436H103.6a2.218,2.218,0,1,0,0-4.436Z" transform="translate(-4.665 -10.033)" fill="#fff"/>
    <path id="Path_19" data-name="Path 19" d="M103.6,104.564H61.517a2.218,2.218,0,0,0,0,4.436H103.6a2.218,2.218,0,0,0,0-4.436Z" transform="translate(-4.665 -11.217)" fill="#fff"/>
    <path id="Path_20" data-name="Path 20" d="M93.776,115.068H74.209a2.218,2.218,0,1,0,0,4.436H93.776a2.218,2.218,0,0,0,0-4.436Z" transform="translate(-6.097 -12.402)" fill="#fff"/>
    <path id="Path_21" data-name="Path 21" d="M60.167,55.77C62.9,62.389,66.963,71,70.821,74.444a8.323,8.323,0,0,0,11.719-.523,8.319,8.319,0,0,0,11.7.538c3.873-3.455,7.94-12.07,10.67-18.687a14.282,14.282,0,0,0-1.088-12.95,13.465,13.465,0,0,0-10.612-6.444q-.491-.033-.992-.034a14.417,14.417,0,0,0-7.344,1.993c.276-3.49,1.214-5.464,3.843-9.113a2.218,2.218,0,1,0-3.6-2.6c-3.208,4.448-4.392,7.209-4.7,11.82a14.5,14.5,0,0,0-7.568-2.106c-.334,0-.665.012-.989.034a13.466,13.466,0,0,0-10.615,6.444A14.282,14.282,0,0,0,60.167,55.77Zm12-14.968c.227-.016.456-.023.687-.023a10.023,10.023,0,0,1,7.925,3.827,2.124,2.124,0,0,0,.272.3,2.223,2.223,0,0,0,1.467.586,2.18,2.18,0,0,0,.523-.054,2.206,2.206,0,0,0,1.219-.747c.016-.019.03-.036.044-.055a10.045,10.045,0,0,1,8.6-3.836,9.082,9.082,0,0,1,7.146,4.36,9.832,9.832,0,0,1,.754,8.916C97.254,62.7,93.784,68.921,91.275,71.16a3.885,3.885,0,0,1-6.02-1.009A3.113,3.113,0,0,0,82.7,68.557c-.053,0-.106,0-.161,0a3.115,3.115,0,0,0-2.717,1.6,3.891,3.891,0,0,1-6.037.994c-2.5-2.225-5.966-8.447-9.521-17.068a9.829,9.829,0,0,1,.754-8.916A9.077,9.077,0,0,1,72.171,40.8Z" transform="translate(-4.643 -2.323)" fill="#fff"/>
  </g>
</svg>
