<svg xmlns="http://www.w3.org/2000/svg" width="130.847" height="128.464" viewBox="0 0 130.847 128.464">
  <g id="noun_strong_health_3827058" data-name="noun_strong health_3827058" transform="translate(-7.85 -8.489)">
    <path id="Path_22" data-name="Path 22" d="M45.623,94.859H48.9a7.255,7.255,0,0,1,1.464-3.567L21.5,61.311a3.532,3.532,0,0,0-.228-.28A27.7,27.7,0,1,1,67.261,31.6a3.067,3.067,0,0,0,5.653,0A27.727,27.727,0,0,1,126.2,42.345,27.319,27.319,0,0,1,123.526,54.2a20.977,20.977,0,0,1-1.166,2.191l0,0h-20.03a3.063,3.063,0,0,0-2.251.985l-3.357,3.629L91.927,47.372a3.067,3.067,0,0,0-5.662-.3L81.81,56.4H76.555a3.065,3.065,0,0,0-2.724,1.657l-3.457,6.678L63.81,39.339a3.068,3.068,0,0,0-5.889-.177L52.348,56.4H47.39a3.067,3.067,0,1,0,0,6.135h7.191A3.067,3.067,0,0,0,57.5,60.408l3.013-9.317,5.931,22.942a3.068,3.068,0,0,0,2.626,2.28,2.872,2.872,0,0,0,.345.019,3.066,3.066,0,0,0,2.723-1.658L78.423,62.53h5.323a3.067,3.067,0,0,0,2.768-1.746L88.6,56.411l4.02,11.436a3.067,3.067,0,0,0,5.145,1.066l5.9-6.382h31.9a3.067,3.067,0,0,0,0-6.135H129.3v0c.324-.719.622-1.455.911-2.191A33.872,33.872,0,0,0,70.092,23.879,33.846,33.846,0,1,0,16.412,64.8a3.058,3.058,0,0,0,.342.429l28.527,29.64C45.395,94.859,45.509,94.859,45.623,94.859Z" fill="#fff"/>
    <path id="Path_23" data-name="Path 23" d="M135.656,113.052h-4.75v-2.7a5.379,5.379,0,0,0-5.372-5.372h-5.416v-1.306a5.134,5.134,0,0,0-5.127-5.127H104.667a5.135,5.135,0,0,0-5.136,5.127v9.377H87.98l2.112-2.191,7.257-7.537,6.678-6.941,20.639-21.446c.78-.736,1.525-1.5,2.226-2.287h-8.536L81.573,110.861l-2.1,2.191h-4.8v-9.377a5.128,5.128,0,0,0-5.127-5.127H59.217a5.124,5.124,0,0,0-4.268,2.279l-.026.053a3.771,3.771,0,0,0-.3.517c-.026.044-.044.1-.07.14a5.211,5.211,0,0,0-.237.613c-.009.018-.009.035-.018.053-.053.193-.1.386-.131.587-.018.079-.026.149-.035.219a3.928,3.928,0,0,0-.044.561c0,.035-.009.07-.009.105v1.306H48.665a5.377,5.377,0,0,0-5.364,5.372v2.7h-4.75a6.093,6.093,0,0,0-6.091,6.082v5.153a6.1,6.1,0,0,0,6.091,6.091H43.3v2.7a5.369,5.369,0,0,0,5.364,5.364h5.416v1.315a5.141,5.141,0,0,0,5.136,5.127H69.541a5.134,5.134,0,0,0,5.127-5.127v-9.377H99.531v9.377a5.141,5.141,0,0,0,5.136,5.127h10.324a5.139,5.139,0,0,0,5.127-5.127v-1.315h5.416a5.371,5.371,0,0,0,5.372-5.364v-2.7h4.75a6.093,6.093,0,0,0,6.082-6.091v-5.153A6.085,6.085,0,0,0,135.656,113.052ZM43.3,124.244H38.595l-.044-5.057H43.3Zm10.78,8.063H49.436V111.115h4.645Zm14.452,6.442H60.216V104.682h8.317Zm31-14.5H74.667v-5.074l24.863-.018v5.092Zm14.452,14.5h-8.317V104.682h8.317Zm10.788-6.442h-4.654V111.115h4.654Zm6.135-8.063v-5.1l4.7-.009.053,5.109Z" transform="translate(-3.042 -7.93)" fill="#fff"/>
  </g>
</svg>
