<svg xmlns="http://www.w3.org/2000/svg" width="23.506" height="23.501" viewBox="0 0 23.506 23.501">
  <path id="instagram-brands_1_" data-name="instagram-brands (1)" d="M11.681,37.55a6.025,6.025,0,1,0,6.025,6.025A6.016,6.016,0,0,0,11.681,37.55Zm0,9.943A3.917,3.917,0,1,1,15.6,43.576,3.924,3.924,0,0,1,11.681,47.493ZM19.358,37.3A1.405,1.405,0,1,1,17.953,35.9,1.4,1.4,0,0,1,19.358,37.3Zm3.991,1.426a6.955,6.955,0,0,0-1.9-4.924,7,7,0,0,0-4.924-1.9c-1.94-.11-7.756-.11-9.7,0A6.991,6.991,0,0,0,1.906,33.8a6.978,6.978,0,0,0-1.9,4.924c-.11,1.94-.11,7.756,0,9.7a6.955,6.955,0,0,0,1.9,4.924,7.01,7.01,0,0,0,4.924,1.9c1.94.11,7.756.11,9.7,0a6.955,6.955,0,0,0,4.924-1.9,7,7,0,0,0,1.9-4.924C23.459,46.481,23.459,40.67,23.349,38.73ZM20.842,50.5a3.966,3.966,0,0,1-2.234,2.234c-1.547.614-5.218.472-6.927.472s-5.386.136-6.927-.472A3.966,3.966,0,0,1,2.519,50.5c-.614-1.547-.472-5.218-.472-6.927s-.136-5.386.472-6.927a3.966,3.966,0,0,1,2.234-2.234c1.547-.614,5.218-.472,6.927-.472s5.386-.136,6.927.472a3.966,3.966,0,0,1,2.234,2.234c.614,1.547.472,5.218.472,6.927S21.456,48.961,20.842,50.5Z" transform="translate(0.075 -31.825)" fill="#fff"/>
</svg>
