<svg height='100px' width='100px'  fill="#000000" xmlns="http://www.w3.org/2000/svg" xmlns:xlink="http://www.w3.org/1999/xlink" version="1.1" x="0px" y="0px" viewBox="0 0 120.666 238.184" style="enable-background:new 0 0 120.666 238.184;" xml:space="preserve"><g><path d="M90.872,54.809c-4.506-2.486-8.663-3.093-11.322-3.082c-0.027,0-0.048,0.002-0.075,0.002   c-0.193-0.015-0.387-0.029-0.584-0.029H60.333H41.775c-0.197,0-0.39,0.015-0.583,0.029c-0.027,0-0.048-0.002-0.076-0.002   c-2.662-0.011-6.818,0.596-11.325,3.082c-6.824,3.732-13.851,11.377-19.208,25.055c-5.391,13.733-9.441,33.733-10.577,63.871   c-0.185,4.967,3.69,9.144,8.658,9.329c0.115,0.005,0.229,0.007,0.342,0.007c4.816,0,8.806-3.813,8.988-8.665   c0.109-3.015,0.253-5.898,0.423-8.684c-3.208-5.085-5.085-11.688-5.085-20.224c0-13.496,5.081-25.213,14.304-34.002   c0.341-0.324,0.747-0.635,1.201-0.935c-8.208,7.913-13.505,19.218-13.505,32.937c0,11.778,3.911,21.985,10.208,29.832   c-1.609-1.188-3.098-2.53-4.439-4.046l12.238,88.892c0,5.527,5.536,10.008,12.362,10.008c6.828,0,12.365-4.48,12.365-10.008   v-68.059c0.753,0.039,1.508,0.061,2.266,0.061c0.758,0,1.513-0.021,2.266-0.061v68.059c0,5.527,5.537,10.008,12.365,10.008   c6.826,0,12.363-4.48,12.363-10.008l12.237-88.891c-1.342,1.516-2.83,2.857-4.44,4.047c6.298-7.848,10.209-18.056,10.209-29.834   c0-13.718-5.297-25.022-13.503-32.935c0.454,0.299,0.859,0.608,1.199,0.933c9.224,8.791,14.305,20.506,14.305,34.002   c0,8.539-1.878,15.144-5.088,20.229c0.171,2.781,0.315,5.668,0.426,8.678c0.182,4.853,4.171,8.665,8.987,8.665   c0.114,0,0.228-0.002,0.342-0.007c4.967-0.186,8.844-4.362,8.659-9.329c-1.543-40.162-8.15-62.391-16.422-75.615   C100.096,61.542,95.387,57.276,90.872,54.809z"></path><circle cx="60.333" cy="22.5" r="22.5"></circle></g></svg>