<svg xmlns="http://www.w3.org/2000/svg" width="90" height="60" viewBox="0 0 90 60">
  <g id="noun_Quotation_Mark_782556" data-name="noun_Quotation Mark_782556" transform="translate(-5 -19.998)">
    <g id="Group_2" data-name="Group 2" transform="translate(0 -952.362)">
      <path id="Path_25" data-name="Path 25" d="M80.375,1032.36A14.633,14.633,0,0,0,95,1017.735v-10.75A14.633,14.633,0,0,0,80.375,992.36H73.344a130.914,130.914,0,0,1,3.594-17.437A2.1,2.1,0,0,0,75,972.36c-2.822,0-5.143,1.852-7.344,4.25a44.563,44.563,0,0,0-6.156,9.031c-3.705,6.951-6.5,14.956-6.5,20.719v11.375a14.633,14.633,0,0,0,14.625,14.625Zm-50,0A14.633,14.633,0,0,0,45,1017.735v-10.75A14.633,14.633,0,0,0,30.375,992.36H23.344a130.913,130.913,0,0,1,3.594-17.437A2.1,2.1,0,0,0,25,972.36c-2.822,0-5.143,1.852-7.344,4.25a44.563,44.563,0,0,0-6.156,9.031C7.795,992.593,5,1000.6,5,1006.36v11.375a14.633,14.633,0,0,0,14.625,14.625Zm50-4H69.625A10.55,10.55,0,0,1,59,1017.735V1006.36c0-4.349,2.556-12.323,6.031-18.844a41.391,41.391,0,0,1,5.563-8.219,11.481,11.481,0,0,1,1.469-1.25c-1.312,5.378-2.236,10.464-3.031,16.031A2.088,2.088,0,0,0,71,996.36h9.375A10.55,10.55,0,0,1,91,1006.985v10.75a10.55,10.55,0,0,1-10.625,10.625Zm-50,0H19.625A10.55,10.55,0,0,1,9,1017.735V1006.36c0-4.349,2.556-12.323,6.031-18.844a41.391,41.391,0,0,1,5.563-8.219,11.481,11.481,0,0,1,1.469-1.25c-1.312,5.378-2.236,10.464-3.031,16.031A2.088,2.088,0,0,0,21,996.36h9.375A10.55,10.55,0,0,1,41,1006.985v10.75A10.55,10.55,0,0,1,30.375,1028.36Z" fill="#fff"/>
    </g>
  </g>
</svg>
