<svg id="Group_1" data-name="Group 1" xmlns="http://www.w3.org/2000/svg" width="618.027" height="566.539" viewBox="0 0 618.027 566.539">
  <path id="Path_11" data-name="Path 11" d="M132.8,138.673H55.548a12.871,12.871,0,0,0-12.881,12.863v77.253a12.887,12.887,0,0,0,12.881,12.882H132.8a12.878,12.878,0,0,0,12.872-12.882V151.536A12.862,12.862,0,0,0,132.8,138.673ZM119.92,215.926h-51.5V164.418h51.5Z" transform="translate(8.833 2.971)" fill="#bf610d"/>
  <path id="Path_12" data-name="Path 12" d="M162.209,241.671h77.254a12.878,12.878,0,0,0,12.873-12.882V151.536a12.862,12.862,0,0,0-12.873-12.863H162.209a12.863,12.863,0,0,0-12.872,12.863v77.253A12.878,12.878,0,0,0,162.209,241.671Zm12.872-77.253h51.509v51.508H175.082Z" transform="translate(30.924 2.971)" fill="#bf610d"/>
  <path id="Path_13" data-name="Path 13" d="M268.872,241.671h77.244a12.892,12.892,0,0,0,12.9-12.882V151.536a12.874,12.874,0,0,0-12.9-12.863H268.872A12.863,12.863,0,0,0,256,151.536v77.253A12.879,12.879,0,0,0,268.872,241.671Zm12.893-77.253h51.488v51.508H281.765Z" transform="translate(53.014 2.971)" fill="#bf610d"/>
  <path id="Path_14" data-name="Path 14" d="M132.8,245.328H55.548A12.886,12.886,0,0,0,42.667,258.21v77.254a12.886,12.886,0,0,0,12.881,12.882H132.8a12.878,12.878,0,0,0,12.872-12.882V258.21A12.878,12.878,0,0,0,132.8,245.328ZM119.92,322.582h-51.5v-51.49h51.5Z" transform="translate(8.833 25.059)" fill="#bf610d"/>
  <path id="Path_15" data-name="Path 15" d="M605.167,420.479H566.541V407.6a38.608,38.608,0,0,0-51.528-36.4v-2.226a38.576,38.576,0,0,0-51.49-36.4V72.839A25.819,25.819,0,0,0,437.76,47.094H412.034V34.212a12.882,12.882,0,1,0-25.764,0V47.094H309.017V34.212a12.877,12.877,0,1,0-25.753,0V47.094H206.009V34.212a12.873,12.873,0,1,0-25.745,0V47.094H103.011V34.212a12.877,12.877,0,1,0-25.755,0V47.094h-51.5A25.823,25.823,0,0,0,0,72.839V420.479a25.823,25.823,0,0,0,25.755,25.745h103v38.627a12.887,12.887,0,0,0,12.882,12.882h38.626v12.882a38.584,38.584,0,0,0,51.5,36.4v2.226a38.627,38.627,0,1,0,77.253,0V497.733H437.76v51.509a38.627,38.627,0,1,0,77.254,0v-2.226a38.608,38.608,0,0,0,51.528-36.4V497.733h38.626a12.883,12.883,0,0,0,12.863-12.882v-51.49A12.883,12.883,0,0,0,605.167,420.479ZM25.758,72.877c.01,0,.028-.019.047-.037H77.256V85.721a12.877,12.877,0,0,0,25.755,0V72.839h77.253V85.721a12.872,12.872,0,0,0,25.745,0V72.839h77.254V85.721a12.877,12.877,0,0,0,25.753,0V72.839H386.27V85.721a12.882,12.882,0,0,0,25.764,0V72.839h25.688l.037.037v38.59h-412Zm0,347.565V137.21h412V420.441l-.037.037H309.017V381.854a12.879,12.879,0,0,0,12.873,12.882h77.243a12.892,12.892,0,0,0,12.9-12.882V304.6a12.891,12.891,0,0,0-12.9-12.882H321.889A12.879,12.879,0,0,0,309.017,304.6v64.372a38.682,38.682,0,0,0-25.753-36.4V304.6a12.879,12.879,0,0,0-12.873-12.882H193.136A12.878,12.878,0,0,0,180.264,304.6v77.254a12.851,12.851,0,0,0,3.772,9.11,38.432,38.432,0,0,0-3.772,16.633v12.882H25.8C25.785,420.46,25.767,420.441,25.758,420.441Zm309.023-51.469v-51.49H386.27v51.49Zm-103.017,0H206.009v-51.49h51.509v15.089A38.668,38.668,0,0,0,231.763,368.972ZM154.53,471.988a12.882,12.882,0,0,0-.019-25.764h25.753v25.764Zm64.361,51.49a12.889,12.889,0,0,1-12.882-12.863V407.6a12.877,12.877,0,0,1,25.755,0V510.615A12.887,12.887,0,0,1,218.891,523.478Zm64.372,25.764a12.873,12.873,0,0,1-25.745,0V368.972a12.873,12.873,0,0,1,25.745,0Zm25.753-77.254V446.224H437.76v25.764Zm180.272,77.254a12.882,12.882,0,0,1-25.764,0V368.972a12.882,12.882,0,0,1,25.764,0v180.27Zm51.489-38.627a12.882,12.882,0,0,1-25.763,0V407.6a12.882,12.882,0,0,1,25.763,0Zm25.764-64.391h25.726a12.882,12.882,0,0,0,0,25.764H566.541Z" transform="translate(-0.003 -21.33)" fill="#bf610d"/>
</svg>
