<svg xmlns="http://www.w3.org/2000/svg" width="114.204" height="111.163" viewBox="0 0 114.204 111.163">
  <g id="noun_strong_2352146" transform="translate(-6 -5.996)">
    <g id="Group_15" data-name="Group 15">
      <path id="Path_48" data-name="Path 48" d="M38.609,30.652A19.766,19.766,0,1,0,52.884,6.612a19.766,19.766,0,0,0-14.275,24.04Zm9.71-10.5a5.518,5.518,0,1,0,.007,0Z" transform="translate(38.277)" fill="#bf610d"/>
      <path id="Path_49" data-name="Path 49" d="M44.207,20.213a5.417,5.417,0,1,0-.007,0Z" transform="translate(45.45 7.173)" fill="#bf610d"/>
      <path id="Path_50" data-name="Path 50" d="M120.083,35.069c-.029-.367-.044-.578-.075-.771-.033-.4-.064-.611-.094-.817l-.044-.323c-.077-.485-.178-1-.281-1.522-.154-.727-.343-1.443-.553-2.157a24.244,24.244,0,0,1-9.7,12.835l3.294,2.2a2.2,2.2,0,0,1,.982,1.825v4.392h-4.392V47.511L104.9,44.627a24.492,24.492,0,0,1-2.884.953,24.088,24.088,0,0,1-5.967.755v2.2a2.2,2.2,0,0,1-1.381,2.04l-19.876,7.95c-.944.378-1.889.8-2.811,1.236a51.187,51.187,0,0,0-18.141,14.3l-3.431-2.745A55.624,55.624,0,0,1,69.032,56.329l-.773-1.1a20.35,20.35,0,0,0-19.689-8.359l-2.515.387L45.4,42.916l2.512-.384A24.65,24.65,0,0,1,59.856,43.7c.624-1.608,1.142-5.163-.206-12.89A25.915,25.915,0,0,0,39.075,9.38a6.356,6.356,0,0,0-.953-.147l-1.744-.178C35.787,9.02,35.179,9,34.551,9A28.551,28.551,0,0,0,6,37.551,49.76,49.76,0,0,0,21.154,73.174L63.1,113.567l41.961-40.393A49.635,49.635,0,0,0,120.2,37.551a24.75,24.75,0,0,0-.121-2.482ZM31.834,47.889a2.2,2.2,0,0,1-3.105,0l-9.771-9.767a14.174,14.174,0,0,1-4.173-10.083A7.838,7.838,0,0,1,28.167,22.5l2.115,2.113L32.4,22.5a7.836,7.836,0,0,1,13.379,5.541A14.161,14.161,0,0,1,41.6,38.122Z" transform="translate(0 3.593)" fill="#bf610d"/>
      <path id="Path_51" data-name="Path 51" d="M30.76,16.1a3.422,3.422,0,0,0-2.436,1.008l-3.668,3.668a2.2,2.2,0,0,1-3.105,0L17.884,17.11A3.446,3.446,0,0,0,12,19.546a9.826,9.826,0,0,0,2.888,6.98L23.1,34.737l8.212-8.214a9.8,9.8,0,0,0,2.89-6.977A3.45,3.45,0,0,0,30.76,16.1Z" transform="translate(7.177 12.086)" fill="#bf610d"/>
    </g>
  </g>
</svg>
