<svg xmlns="http://www.w3.org/2000/svg" width="89.969" height="91.189" viewBox="0 0 89.969 91.189">
  <g id="noun_Weight_Lifting_3827081" data-name="noun_Weight Lifting_3827081" transform="translate(-6.002 -5)">
    <path id="Path_9" data-name="Path 9" d="M73.918,25.112A10.056,10.056,0,1,0,63.86,15.056,10.068,10.068,0,0,0,73.918,25.112Zm0-15.857a5.8,5.8,0,1,1-5.8,5.8A5.808,5.808,0,0,1,73.918,9.256Z" transform="translate(-22.684)" fill="#fff"/>
    <path id="Path_10" data-name="Path 10" d="M93.845,65.45h-.912V63.4a4.154,4.154,0,0,0-4.149-4.149H85.891c-.05,0-.1.005-.15.007a4.153,4.153,0,0,0-3.893-2.728H78.954A4.154,4.154,0,0,0,74.8,60.681V65.45h-4.24V53.4A13.229,13.229,0,0,0,57.348,40.191H45.118A13.229,13.229,0,0,0,31.9,53.4V65.45H27.171V60.681a4.154,4.154,0,0,0-4.149-4.149H20.128a4.153,4.153,0,0,0-3.893,2.728c-.05,0-.1-.007-.15-.007H13.191A4.154,4.154,0,0,0,9.042,63.4V65.45H8.13a2.128,2.128,0,0,0,0,4.256h.912v2.049A4.154,4.154,0,0,0,13.191,75.9h2.894c.05,0,.1-.005.15-.007a4.152,4.152,0,0,0,3.893,2.728h2.894a4.154,4.154,0,0,0,4.149-4.149V69.705h4.973a6.157,6.157,0,0,0,7.851,4.175V103.3a6.673,6.673,0,0,0,11.239,4.876A6.673,6.673,0,0,0,62.471,103.3V73.88a6.157,6.157,0,0,0,7.851-4.175H74.8v4.769a4.154,4.154,0,0,0,4.149,4.149h2.894A4.152,4.152,0,0,0,85.739,75.9c.05,0,.1.007.15.007h2.894a4.154,4.154,0,0,0,4.149-4.149V69.705h.912a2.127,2.127,0,0,0,0-4.255ZM20.234,74.368V60.787h2.681V74.368ZM13.3,63.508h2.681v8.14H13.3Zm42.492,42.224a2.43,2.43,0,0,1-2.427-2.427V73.851a2.128,2.128,0,0,0-4.256,0V103.3a2.428,2.428,0,0,1-4.856,0v-33.6H58.218v33.6A2.431,2.431,0,0,1,55.789,105.731Zm10.52-37.715a1.918,1.918,0,0,1-3.836,0V52.748a2.128,2.128,0,1,0-4.256,0v12.7H44.25v-12.7a2.128,2.128,0,1,0-4.256,0V68.017a1.918,1.918,0,0,1-3.836,0V53.4a8.968,8.968,0,0,1,8.96-8.957H57.349a8.969,8.969,0,0,1,8.96,8.957Zm22.369,3.632H86v-8.14h2.681Zm-6.937,2.72H79.06V60.788h2.681V74.368Z" transform="translate(0 -13.797)" fill="#fff"/>
  </g>
</svg>
