<svg xmlns="http://www.w3.org/2000/svg" width="65.915" height="65.915" viewBox="0 0 65.915 65.915">
  <g id="noun_Barbell_2899556" transform="translate(-2.642 -19)">
    <g id="Group_13" data-name="Group 13" transform="translate(2.642 19)">
      <g id="Group_12" data-name="Group 12" transform="translate(0 0)">
        <g id="Group_7" data-name="Group 7">
          <path id="Path_42" data-name="Path 42" d="M51.957,84.915a32.958,32.958,0,1,1,23.3-9.653A32.741,32.741,0,0,1,51.957,84.915Zm0-63.968A31.011,31.011,0,1,0,82.968,51.957,31.046,31.046,0,0,0,51.957,20.947Z" transform="translate(-19 -19)" fill="#38b6ff"/>
        </g>
        <g id="Group_8" data-name="Group 8" transform="translate(5.562 5.562)">
          <path id="Path_43" data-name="Path 43" d="M86.395,113.79a27.395,27.395,0,1,1,27.4-27.4A27.426,27.426,0,0,1,86.395,113.79Zm0-52.843a25.448,25.448,0,1,0,25.448,25.448A25.477,25.477,0,0,0,86.395,60.947Z" transform="translate(-59 -59)" fill="#38b6ff"/>
        </g>
        <g id="Group_9" data-name="Group 9" transform="translate(24.336 11.125)">
          <path id="Path_44" data-name="Path 44" d="M210.27,106.509h-4.545a.973.973,0,0,1-.973-.973c0-.607-.875-1.284-2.13-1.284s-2.13.677-2.13,1.284a.973.973,0,0,1-.973.973h-4.545a.973.973,0,0,1-.973-.973c0-3.6,3.868-6.536,8.622-6.536s8.622,2.932,8.622,6.536A.973.973,0,0,1,210.27,106.509Zm-3.753-1.947h2.628c-.651-2.064-3.329-3.616-6.524-3.616s-5.873,1.551-6.524,3.616h2.628a4.49,4.49,0,0,1,7.792,0Z" transform="translate(-194 -99)" fill="#38b6ff"/>
        </g>
        <g id="Group_10" data-name="Group 10" transform="translate(20.859 20.859)">
          <path id="Path_45" data-name="Path 45" d="M181.1,193.2a12.1,12.1,0,1,1,12.1-12.1A12.112,12.112,0,0,1,181.1,193.2Zm0-22.25A10.151,10.151,0,1,0,191.25,181.1,10.163,10.163,0,0,0,181.1,170.947Z" transform="translate(-169 -169)" fill="#38b6ff"/>
        </g>
        <g id="Group_11" data-name="Group 11" transform="translate(27.47 27.47)">
          <path id="Path_46" data-name="Path 46" d="M222.024,227.512a5.488,5.488,0,1,1,5.488-5.488A5.494,5.494,0,0,1,222.024,227.512Zm0-9.029a3.541,3.541,0,1,0,3.541,3.541A3.545,3.545,0,0,0,222.024,218.483Z" transform="translate(-216.536 -216.536)" fill="#38b6ff"/>
        </g>
      </g>
    </g>
  </g>
</svg>
