<svg xmlns="http://www.w3.org/2000/svg" width="60.853" height="83.938" viewBox="0 0 60.853 83.938">
  <g id="noun_Boxing_Glove_3826860" data-name="noun_Boxing Glove_3826860" transform="translate(-1090.72 -113.897)">
    <path id="Path_8" data-name="Path 8" d="M72.278,5.127H45.6A14.31,14.31,0,0,0,31.3,19.421v6.445a1.967,1.967,0,0,0,.153.761A14.026,14.026,0,0,0,25.72,37.94V51.727A14.05,14.05,0,0,0,39.348,65.753V80.848a4.847,4.847,0,0,0,4.841,4.842h6.746a5.125,5.125,0,0,0,4.808,3.375h5.429A5.125,5.125,0,0,0,65.98,85.69h6.746a4.847,4.847,0,0,0,4.842-4.842V64.828a14.057,14.057,0,0,0,9.005-13.1V19.421A14.311,14.311,0,0,0,72.278,5.127ZM43.271,80.848V77.325h7.35v4.441H44.189A.919.919,0,0,1,43.271,80.848Zm17.9,4.294H55.742a1.2,1.2,0,0,1-1.2-1.2V76.019a3.912,3.912,0,0,1,7.824,0v7.925A1.2,1.2,0,0,1,61.172,85.142Zm11.553-3.376H66.293V77.325h7.35v3.523A.919.919,0,0,1,72.725,81.766Zm.918-16v8.758h-7.5a7.832,7.832,0,0,0-15.377,0h-7.5V65.764H73.643Zm9.005-14.037A10.125,10.125,0,0,1,72.535,61.84H39.756A10.125,10.125,0,0,1,29.643,51.727V37.94A10.125,10.125,0,0,1,39.756,27.827H50.984a7.714,7.714,0,1,1,0,15.428H36.9a1.962,1.962,0,1,0,0,3.924h5.017v5.849a1.962,1.962,0,1,0,3.924,0V47.179h5.142A11.655,11.655,0,0,0,62.4,37.791h5.249A12.13,12.13,0,0,0,79.766,25.674a1.962,1.962,0,0,0-3.924,0,8.2,8.2,0,0,1-8.193,8.193H62.488a11.645,11.645,0,0,0-11.5-9.963H39.757a13.991,13.991,0,0,0-4.529.749V19.421A10.382,10.382,0,0,1,45.6,9.051H72.279a10.382,10.382,0,0,1,10.37,10.37V51.727Z" transform="translate(1065 108.771)" fill="#fff"/>
  </g>
</svg>
