<svg xmlns="http://www.w3.org/2000/svg" width="149.104" height="83.466" viewBox="0 0 149.104 83.466">
  <g id="noun_Dumbbell_3826865" transform="translate(-5.448 -38.268)">
    <path id="Path_16" data-name="Path 16" d="M147.009,69.539h-2.545V60.065a7.15,7.15,0,0,0-7.142-7.142h-8.383c-.048,0-.094.006-.142.007V45.41a7.15,7.15,0,0,0-7.142-7.142H105.284a7.15,7.15,0,0,0-7.142,7.142V69.538H61.857V45.411a7.15,7.15,0,0,0-7.142-7.142H38.343A7.15,7.15,0,0,0,31.2,45.411v7.52c-.048,0-.094-.007-.142-.007H22.677a7.15,7.15,0,0,0-7.142,7.142V69.54H12.989a7.55,7.55,0,0,0-7.541,7.541v5.84a7.55,7.55,0,0,0,7.541,7.541h2.546v9.475a7.15,7.15,0,0,0,7.142,7.142h8.382c.048,0,.094-.006.142-.007v7.52a7.15,7.15,0,0,0,7.142,7.142H54.715a7.15,7.15,0,0,0,7.142-7.142V90.46H98.144v24.129a7.15,7.15,0,0,0,7.142,7.142h16.371a7.15,7.15,0,0,0,7.142-7.142v-7.52c.048,0,.094.007.142.007h8.383a7.15,7.15,0,0,0,7.142-7.142V90.46h2.545a7.55,7.55,0,0,0,7.541-7.541v-5.84A7.552,7.552,0,0,0,147.009,69.539Zm-9.686,30.538H128.94a.142.142,0,0,1-.142-.142V60.065a.142.142,0,0,1,.142-.142h8.383a.142.142,0,0,1,.142.142v39.87A.143.143,0,0,1,137.323,100.077ZM121.8,99.935v14.654a.142.142,0,0,1-.142.142H105.285a.142.142,0,0,1-.142-.142V45.411a.142.142,0,0,1,.142-.142h16.371a.142.142,0,0,1,.142.142V99.935Zm-67.083,14.8H38.343a.142.142,0,0,1-.142-.142V45.411a.142.142,0,0,1,.142-.142H54.715a.142.142,0,0,1,.142.142V114.59A.142.142,0,0,1,54.715,114.731ZM22.678,100.077a.142.142,0,0,1-.142-.142V60.065a.142.142,0,0,1,.142-.142H31.06a.142.142,0,0,1,.142.142v39.87a.142.142,0,0,1-.142.142ZM12.991,83.46a.542.542,0,0,1-.541-.541v-5.84a.542.542,0,0,1,.541-.541h2.546v6.921H12.991Zm48.866,0V76.539H98.144V83.46Zm85.693-.54a.542.542,0,0,1-.541.541h-2.545V76.54h2.545a.542.542,0,0,1,.541.541Z" fill="#fff"/>
  </g>
</svg>
