<svg xmlns="http://www.w3.org/2000/svg" width="108.935" height="83.857" viewBox="0 0 108.935 83.857">
  <g id="noun_healthy_heart_3826953" data-name="noun_healthy heart_3826953" transform="translate(-2.862 -22.302)">
    <path id="Path_5" data-name="Path 5" d="M96.073,55.284A14.628,14.628,0,0,0,70.312,45.8,14.62,14.62,0,1,0,48.2,64.927a2.426,2.426,0,0,0,.221.262L68.462,86.016a2.542,2.542,0,0,0,3.664,0l19.348-20.1A14.673,14.673,0,0,0,96.073,55.284Zm-8.124,6.962c-.033.031-.065.062-.1.1L70.294,80.586,52.453,62.049l-.053-.055-.134-.139c-.039-.049-.079-.1-.122-.143A9.532,9.532,0,1,1,67.967,51.588a2.544,2.544,0,0,0,4.689,0A9.535,9.535,0,1,1,87.949,62.245Z" transform="translate(-12.982 -5.018)" fill="#fff"/>
    <path id="Path_6" data-name="Path 6" d="M42.649,101.1H38.041a3.729,3.729,0,0,1,.974-2.2A16.539,16.539,0,0,0,40.078,77.5a28.488,28.488,0,0,1-5.014-10.483L32.509,56.556a7.027,7.027,0,0,0-4.114-4.749L35.54,35.438a9.457,9.457,0,0,0-3.669-12.653,2.544,2.544,0,0,0-3.486.839L7.329,57.794A14.667,14.667,0,0,0,5.1,66.625l.012.137a13.012,13.012,0,0,0,.407,2.195L11.376,91.2a19.48,19.48,0,0,1,.645,4.963v4.94H7.59a2.543,2.543,0,0,0,0,5.087H42.649a2.544,2.544,0,0,0,0-5.088ZM16.295,89.9,10.432,67.662a8.235,8.235,0,0,1-.257-1.323l-.009-.113a9.607,9.607,0,0,1,1.493-5.765L31.047,29a4.21,4.21,0,0,1-.023,4.1c-.038.068-.072.137-.1.208L22.934,51.6c-2.439.875-4.479,3.107-4.093,5.708L21.7,76.58a2.543,2.543,0,1,0,5.032-.746L23.915,56.84A2.117,2.117,0,0,1,24.96,56.3a2.256,2.256,0,0,1,2.606,1.461l2.554,10.461a33.588,33.588,0,0,0,5.9,12.346,11.515,11.515,0,0,1-.757,14.9,8.783,8.783,0,0,0-2.325,5.632H17.108v-4.94A24.583,24.583,0,0,0,16.295,89.9Z" transform="translate(-2.185 -0.031)" fill="#fff"/>
    <path id="Path_7" data-name="Path 7" d="M137.311,101.072h-4.5V96.049a19.494,19.494,0,0,1,.645-4.964l5.861-22.245a12.918,12.918,0,0,0,.408-2.2l.012-.148A14.653,14.653,0,0,0,137.5,57.68L116.442,23.511a2.542,2.542,0,0,0-3.485-.839,9.458,9.458,0,0,0-3.67,12.653l7.19,16.472a7.029,7.029,0,0,0-4.076,4.729l-2.554,10.461a28.516,28.516,0,0,1-5.016,10.484A16.539,16.539,0,0,0,105.9,98.876a3.731,3.731,0,0,1,.975,2.2h-4.618a2.543,2.543,0,1,0,0,5.087h35.059a2.544,2.544,0,0,0,0-5.088Zm-27.665-5.633a11.515,11.515,0,0,1-.758-14.9,33.541,33.541,0,0,0,5.9-12.345l2.554-10.461a2.265,2.265,0,0,1,2.607-1.461,2.117,2.117,0,0,1,1.046.538L118.18,75.8a2.543,2.543,0,0,0,5.032.746l2.856-19.271c.389-2.62-1.684-4.869-4.149-5.73l-8.012-18.356c-.031-.07-.065-.14-.1-.208a4.206,4.206,0,0,1-.024-4.1l19.389,31.46a9.734,9.734,0,0,1,1.494,5.751l-.01.121a8.239,8.239,0,0,1-.257,1.326l-5.861,22.243a24.592,24.592,0,0,0-.812,6.26v5.023H111.973A8.8,8.8,0,0,0,109.646,95.439Z" transform="translate(-28.058)" fill="#fff"/>
  </g>
</svg>
