<svg height='100px' width='100px'  fill="#000000" xmlns="http://www.w3.org/2000/svg" xmlns:xlink="http://www.w3.org/1999/xlink" version="1.1" x="0px" y="0px" viewBox="0 0 100.016 237.183" style="enable-background:new 0 0 100.016 237.183;" xml:space="preserve"><g><path d="M16,119.947c-0.034-24.212,3.495-37.816,6.962-44.916v149.789c0,6.83,5.537,12.363,12.363,12.363   c6.828,0,12.365-5.533,12.365-12.363v-90.271h4.635v90.271c0,6.83,5.537,12.363,12.363,12.363c6.828,0,12.365-5.533,12.365-12.363   V75.07c0.592,1.216,1.19,2.611,1.78,4.238c2.818,7.813,5.189,20.63,5.179,40.638c0.002,5.515-0.176,11.573-0.563,18.223   c-0.257,4.411,3.11,8.196,7.521,8.453c0.159,0.009,0.316,0.014,0.473,0.014c4.205,0.001,7.73-3.282,7.98-7.533   c0.403-6.933,0.589-13.301,0.591-19.157c-0.041-30.184-4.862-46.887-11.435-56.932c-3.285-4.986-7.128-8.184-10.678-9.955   c-2.32-1.17-4.446-1.721-6.143-1.964c-0.766-0.254-1.583-0.397-2.435-0.397H30.691c-0.852,0-1.67,0.143-2.436,0.398   c-1.696,0.243-3.823,0.793-6.143,1.964c-5.378,2.667-11.176,8.501-15.234,18.841C2.77,82.281,0.012,97.287,0,119.947   c0,5.856,0.189,12.224,0.596,19.159c0.248,4.249,3.773,7.531,7.977,7.531c0.158,0,0.316-0.005,0.477-0.014   c4.411-0.259,7.776-4.044,7.519-8.455C16.177,131.518,15.999,125.46,16,119.947z"></path><circle cx="50.009" cy="22.5" r="22.5"></circle></g></svg>