<svg height='100px' width='100px'  fill="#000000" xmlns="http://www.w3.org/2000/svg" xmlns:xlink="http://www.w3.org/1999/xlink" version="1.1" x="0px" y="0px" viewBox="0 0 149.776 271.338" style="enable-background:new 0 0 149.776 271.338;" xml:space="preserve"><g><path d="M115.865,54.302c-6.519-3.886-12.179-5.38-15.415-5.959c-5.747,8.183-15.221,13.563-25.938,13.649   c-0.086,0-0.172-0.006-0.258-0.006c-0.087,0-0.173,0.006-0.26,0.006c-10.62-0.085-20.019-5.371-25.78-13.431   c-1.549,0.329-3.485,0.843-5.707,1.646c-7.654,2.722-18.785,9.197-27.52,22.739C6.22,86.471-0.011,106.487,0,135.749   c0,9.508,0.651,20.013,2.089,31.648c0.688,5.57,5.431,9.652,10.905,9.652c0.449,0,0.903-0.027,1.361-0.084   c4.995-0.618,8.783-4.497,9.515-9.237l18.178,91.67c0,6.594,6.604,11.939,14.749,11.939c8.147,0,14.754-5.346,14.754-11.939v-74.9   c0.898,0.042,1.799,0.068,2.703,0.068c0.903,0,1.805-0.026,2.703-0.068v74.9c0,6.594,6.606,11.939,14.753,11.939   c8.145,0,14.751-5.346,14.751-11.939l20.168-101.715c-0.225,2.283-0.478,4.614-0.774,7.017c-0.744,6.03,3.54,11.521,9.57,12.266   c0.458,0.057,0.912,0.084,1.361,0.084c5.474,0,10.215-4.082,10.902-9.652c1.437-11.638,2.088-22.141,2.088-31.648   c0-19.53-2.752-34.887-7.201-47.012C135.959,70.536,125.215,59.82,115.865,54.302z M11.754,125.152   c0-17.949,6.757-33.529,19.021-45.216c0.452-0.431,0.992-0.844,1.595-1.241c-10.913,10.521-17.956,25.556-17.956,43.797   c0,15.663,5.201,29.237,13.576,39.673C18.162,154.909,11.754,143.332,11.754,125.152z M120.516,162.167   c8.376-10.436,13.578-24.011,13.578-39.675c0-18.241-7.043-33.273-17.955-43.795c0.603,0.397,1.141,0.809,1.593,1.239   c12.266,11.69,19.022,27.267,19.022,45.216C136.754,143.333,130.345,154.911,120.516,162.167z"></path><circle cx="74.254" cy="29.999" r="30"></circle></g></svg>