<svg height='100px' width='100px'  fill="#000000" xmlns="http://www.w3.org/2000/svg" xmlns:xlink="http://www.w3.org/1999/xlink" version="1.1" x="0px" y="0px" viewBox="0 0 77.969 235.009" style="enable-background:new 0 0 77.969 235.009;" xml:space="preserve"><g><path d="M6.576,138.287c0.118,0,0.237-0.003,0.357-0.011c3.309-0.194,5.833-3.033,5.638-6.342   c-0.393-6.685-0.572-12.783-0.57-18.338c-0.026-24.493,3.527-38.399,7.213-45.886v158.298c0,4.97,4.029,9.001,9.002,9.001   c4.969,0,8.998-4.031,8.998-9.001v-95.56h3.297v95.559c0,4.971,4.029,9.002,9,9.002c4.971,0,9-4.031,9-9.002V67.263   c0.524,1.024,1.049,2.162,1.569,3.457c3.185,7.98,5.896,21.368,5.887,42.876c0.002,5.559-0.177,11.655-0.566,18.342   c-0.193,3.307,2.332,6.146,5.641,6.339c0.118,0.007,0.235,0.01,0.353,0.01c3.156,0,5.803-2.462,5.986-5.653   c0.402-6.896,0.587-13.226,0.589-19.039c-0.031-29.97-4.86-46.313-11.102-55.826c-3.12-4.732-6.683-7.66-9.91-9.274   c-1.035-0.521-2.016-0.896-2.933-1.178c-0.987-0.457-2.083-0.72-3.242-0.72h-0.567c-0.29-0.018-0.563-0.028-0.796-0.028   c-0.304,0.001-0.557,0.013-0.765,0.028H29.31c-0.207-0.015-0.458-0.027-0.761-0.027c-0.232-0.001-0.503,0.01-0.79,0.027h-0.817   c-1.348,0-2.613,0.346-3.716,0.952c-0.707,0.251-1.447,0.558-2.215,0.945c-4.881,2.427-10.337,7.788-14.274,17.793   C2.762,76.325,0.01,91.101,0,113.596c0,5.814,0.186,12.144,0.592,19.042C0.779,135.827,3.423,138.287,6.576,138.287z"></path><path d="M38.863,43.789c9.572,0,17.332-13.071,17.332-25.164C56.195,6.533,48.435,0,38.863,0C29.29,0,21.529,6.533,21.529,18.625   C21.529,30.718,29.29,43.789,38.863,43.789z"></path></g></svg>