<svg xmlns="http://www.w3.org/2000/svg" width="52.5" height="67.311" viewBox="0 0 52.5 67.311">
  <g id="noun_Super_Fat_687021" data-name="noun_Super Fat_687021" transform="translate(0 0.001)">
    <g id="Group_5" data-name="Group 5" transform="translate(0 -0.001)">
      <path id="Path_33" data-name="Path 33" d="M40.4,53.384a19.617,19.617,0,0,0-5.87-2.65,9.142,9.142,0,0,1-16.549,0,19.61,19.61,0,0,0-5.871,2.65C7.617,56.326,2.661,62.132.08,72.717a2.716,2.716,0,0,0,4.047,2.974,26.9,26.9,0,0,1,6.281-14.612A27.291,27.291,0,0,0,4.953,77.239c0,13.081,10.17,18.551,21.3,18.551s21.3-5.47,21.3-18.551a27.292,27.292,0,0,0-5.455-16.161,26.9,26.9,0,0,1,6.281,14.613,2.717,2.717,0,0,0,4.046-2.974C49.839,62.132,44.883,56.326,40.4,53.384Z" transform="translate(0 -38.194)" fill="#cd680e"/>
      <path id="Path_34" data-name="Path 34" d="M55.407,232.614c0,2.344,2.349,4.245,5.244,4.245s5.245-1.9,5.245-4.245V228a27.95,27.95,0,0,1-11.958-2.785Z" transform="translate(-40.608 -169.548)" fill="#cd680e"/>
      <path id="Path_35" data-name="Path 35" d="M110.1,232.613c0,2.344,2.349,4.245,5.246,4.245s5.244-1.9,5.244-4.245l1.468-7.4A27.954,27.954,0,0,1,110.1,228v4.617Z" transform="translate(-82.885 -169.547)" fill="#cd680e"/>
      <circle id="Ellipse_12" data-name="Ellipse 12" cx="8.651" cy="8.651" r="8.651" transform="translate(17.599 0)" fill="#cd680e"/>
    </g>
  </g>
</svg>
