<svg xmlns="http://www.w3.org/2000/svg" width="41.548" height="46" viewBox="0 0 41.548 46">
  <g id="noun_Scale_1945118" transform="translate(1 -1)">
    <g id="Group_4" data-name="Group 4" transform="translate(-1 1)">
      <path id="Path_30" data-name="Path 30" d="M28,19.936a2.968,2.968,0,1,0,2.968-2.968c-.039,0-.074.01-.112.011l-.735-2.449a.742.742,0,0,0-1.422.427l.735,2.451A2.958,2.958,0,0,0,28,19.936Zm4.452,0a1.484,1.484,0,1,1-1.484-1.484A1.485,1.485,0,0,1,32.452,19.936Z" transform="translate(-10.194 -4.355)" fill="#fff"/>
      <path id="Path_31" data-name="Path 31" d="M45.053,32.861a.742.742,0,0,0,.5-.7V24.742a.742.742,0,0,0-.988-.7l-.5.174V16.581a3.714,3.714,0,0,0-3.71-3.71H37.349a12.6,12.6,0,0,0-25.15,0H9.194a3.714,3.714,0,0,0-3.71,3.71V34.453l-.674-.062a.742.742,0,0,0-.81.738v7.419a.742.742,0,0,0,.674.739l.818.076A3.71,3.71,0,0,0,9.194,47H40.355a3.745,3.745,0,0,0,.927-.116.717.717,0,0,0,.309-.178L44.738,47c.022,0,.046,0,.068,0a.742.742,0,0,0,.742-.742V38.839a.742.742,0,0,0-.674-.739l-.81-.075V33.209Zm-.988-1.225L29.8,36.655a.75.75,0,0,0-.071.042l-8.44-.781a.721.721,0,0,0-.223-.045.635.635,0,0,0-.083.017l-4.447-.412,7.5-2.638v1.549a.742.742,0,1,0,1.484,0V32.316l2.226-.783v.629a.742.742,0,0,0,1.484,0V31.011l2.226-.783v1.934a.742.742,0,0,0,1.484,0V29.705l2.226-.783v1.013a.742.742,0,0,0,1.484,0V28.452c0-.017-.009-.031-.01-.048l2.235-.786v2.319a.742.742,0,0,0,1.484,0V27.095l3.71-1.305ZM33.229,37.022l6.384-2.247v2.838ZM24.774,2.484A11.133,11.133,0,0,1,35.865,12.871H34.382A9.613,9.613,0,0,0,31.61,6.818c-.007-.007-.009-.018-.016-.025a.293.293,0,0,0-.025-.016,9.625,9.625,0,0,0-13.59,0c-.007.007-.018.009-.025.016a.293.293,0,0,0-.016.025,9.615,9.615,0,0,0-2.771,6.053H13.682A11.135,11.135,0,0,1,24.774,2.484ZM6.968,16.581a2.229,2.229,0,0,1,2.226-2.226h8.9a.742.742,0,1,0,0-1.484H16.651a8.127,8.127,0,0,1,1.856-4.477l1.022,1.022a.742.742,0,0,0,1.049-1.049L19.555,7.345a8.121,8.121,0,0,1,4.477-1.856V6.935a.742.742,0,1,0,1.484,0V5.489a8.122,8.122,0,0,1,4.477,1.856L28.971,8.367A.742.742,0,1,0,30.02,9.417l1.022-1.022A8.119,8.119,0,0,1,32.9,12.872H31.452a.742.742,0,0,0,0,1.484h8.9a2.229,2.229,0,0,1,2.226,2.226v8.158l-1.484.522V24a.742.742,0,0,0-1.484,0v1.484a.743.743,0,0,0,.056.279L14.141,34.745a.73.73,0,0,0-.446.468l-3.759-.348V17.323H15.5a1.857,1.857,0,0,1,1.855,1.855,3.343,3.343,0,0,0,3.339,3.339h8.161a3.343,3.343,0,0,0,3.339-3.339,1.857,1.857,0,0,1,1.855-1.855h5.565v3.71a.742.742,0,1,0,1.484,0V16.581a.742.742,0,0,0-.742-.742H34.048a3.343,3.343,0,0,0-3.339,3.339,1.857,1.857,0,0,1-1.855,1.855H20.694a1.857,1.857,0,0,1-1.855-1.855A3.343,3.343,0,0,0,15.5,15.839H9.194a.742.742,0,0,0-.742.742V34.728L6.968,34.59ZM9.194,45.516a2.221,2.221,0,0,1-2.2-2.014l21.759,2.014Zm34.871-.072L5.484,41.872v-5.93l3.71.344v2.553a.742.742,0,0,0,1.484,0V36.424l2.226.206V38.1a.742.742,0,1,0,1.484,0v-1.33l2.226.206v2.607a.742.742,0,0,0,1.484,0v-2.47l2.226.206v1.522a.742.742,0,1,0,1.484,0V37.454l2.226.206v2.662a.742.742,0,0,0,1.484,0V37.8L27.742,38v1.577a.742.742,0,1,0,1.484,0V38.141l2.226.206v2.717a.742.742,0,0,0,1.484,0v-2.58l2.226.206v1.632a.742.742,0,1,0,1.484,0V38.828l2.226.206v2.772a.742.742,0,0,0,1.484,0V39.172l3.71.344Zm-1.484-7.557L41.1,37.75V34.387a.708.708,0,0,0-.025-.125l1.509-.53Z" transform="translate(-4 -1)" fill="#fff"/>
    </g>
  </g>
</svg>
