<svg xmlns="http://www.w3.org/2000/svg" width="41.342" height="42.831" viewBox="0 0 41.342 42.831">
  <g id="noun_training_schedule_561096" data-name="noun_training schedule_561096" transform="translate(0 -21.33)">
    <g id="Group_1" data-name="Group 1" transform="translate(0 21.33)">
      <path id="Path_11" data-name="Path 11" d="M48.7,138.673H43.529a.861.861,0,0,0-.862.86V144.7a.862.862,0,0,0,.862.862H48.7a.861.861,0,0,0,.861-.862v-5.168A.86.86,0,0,0,48.7,138.673Zm-.862,5.168H44.39V140.4h3.445Z" transform="translate(-39.222 -129.198)" fill="#fff"/>
      <path id="Path_12" data-name="Path 12" d="M150.2,145.563h5.168a.861.861,0,0,0,.861-.862v-5.168a.86.86,0,0,0-.861-.86H150.2a.86.86,0,0,0-.861.86V144.7A.861.861,0,0,0,150.2,145.563Zm.861-5.168H154.5v3.446h-3.446Z" transform="translate(-137.279 -129.198)" fill="#fff"/>
      <path id="Path_13" data-name="Path 13" d="M256.861,145.563h5.167a.862.862,0,0,0,.863-.862v-5.168a.861.861,0,0,0-.863-.86h-5.167a.86.86,0,0,0-.861.86V144.7A.861.861,0,0,0,256.861,145.563Zm.862-5.168h3.444v3.446h-3.444Z" transform="translate(-235.329 -129.198)" fill="#fff"/>
      <path id="Path_14" data-name="Path 14" d="M48.7,245.328H43.529a.862.862,0,0,0-.862.862v5.168a.862.862,0,0,0,.862.862H48.7a.861.861,0,0,0,.861-.862V246.19A.861.861,0,0,0,48.7,245.328Zm-.862,5.168H44.39v-3.444h3.445Z" transform="translate(-39.222 -227.241)" fill="#fff"/>
      <path id="Path_15" data-name="Path 15" d="M40.485,48.031H37.9v-.862a2.583,2.583,0,0,0-3.447-2.435v-.149A2.58,2.58,0,0,0,31.01,42.15V24.776a1.727,1.727,0,0,0-1.723-1.722H27.565v-.862a.862.862,0,1,0-1.723,0v.862H20.674v-.862a.861.861,0,1,0-1.723,0v.862H13.783v-.862a.861.861,0,1,0-1.722,0v.862H6.894v-.862a.861.861,0,1,0-1.723,0v.862H1.726A1.727,1.727,0,0,0,0,24.776V48.031a1.727,1.727,0,0,0,1.723,1.722h6.89v2.584a.862.862,0,0,0,.862.862h2.584v.862A2.581,2.581,0,0,0,15.506,56.5v.149a2.584,2.584,0,1,0,5.168,0V53.2h8.612v3.446a2.584,2.584,0,1,0,5.168,0V56.5A2.583,2.583,0,0,0,37.9,54.06V53.2h2.584a.862.862,0,0,0,.86-.862V48.892A.862.862,0,0,0,40.485,48.031ZM1.726,24.778l0,0H5.171v.862a.861.861,0,0,0,1.723,0v-.862h5.168v.862a.861.861,0,0,0,1.722,0v-.862h5.168v.862a.861.861,0,0,0,1.723,0v-.862h5.168v.862a.862.862,0,0,0,1.723,0v-.862h1.718l0,0V27.36H1.726Zm0,23.25V29.082h27.56V48.028l0,0h-8.61V45.447a.861.861,0,0,0,.861.862H26.7a.862.862,0,0,0,.863-.862V40.279a.862.862,0,0,0-.863-.862H21.535a.861.861,0,0,0-.861.862v4.306a2.588,2.588,0,0,0-1.723-2.435V40.279a.861.861,0,0,0-.861-.862H12.922a.861.861,0,0,0-.861.862v5.168a.86.86,0,0,0,.252.609,2.571,2.571,0,0,0-.252,1.113v.862H1.729ZM22.4,44.585V41.141h3.444v3.444Zm-6.891,0H13.783V41.141h3.446V42.15A2.587,2.587,0,0,0,15.506,44.585ZM10.34,51.476a.862.862,0,0,0,0-1.723h1.723v1.723Zm4.305,3.444a.862.862,0,0,1-.862-.86V47.169a.861.861,0,0,1,1.723,0V54.06A.862.862,0,0,1,14.645,54.921Zm4.306,1.723a.861.861,0,0,1-1.722,0V44.585a.861.861,0,0,1,1.722,0Zm1.723-5.168V49.753h8.612v1.723Zm12.059,5.168a.862.862,0,0,1-1.723,0V44.585a.862.862,0,0,1,1.723,0V56.644Zm3.444-2.584a.862.862,0,0,1-1.723,0V47.169a.862.862,0,0,1,1.723,0ZM37.9,49.753h1.721a.862.862,0,0,0,0,1.723H37.9Z" transform="translate(-0.003 -21.33)" fill="#fff"/>
    </g>
    <text id="Created_by_lastspark" data-name="Created by lastspark" transform="translate(0 62.758)" fill="#fff" font-size="1" font-family="Arial-BoldMT, Arial" font-weight="700"><tspan x="0" y="0">Created by lastspark</tspan></text>
    <text id="from_the_Noun_Project" data-name="from the Noun Project" transform="translate(0 63.161)" fill="#fff" font-size="1" font-family="Arial-BoldMT, Arial" font-weight="700"><tspan x="0" y="0">from the Noun Project</tspan></text>
  </g>
</svg>
